<?xml version="1.0" encoding="utf-8"?>
<!-- Generator: Adobe Illustrator 25.4.1, SVG Export Plug-In . SVG Version: 6.00 Build 0)  -->
<svg version="1.1" id="Layer_1" xmlns="http://www.w3.org/2000/svg" xmlns:xlink="http://www.w3.org/1999/xlink" x="0px" y="0px"
	 viewBox="0 0 96 98" style="enable-background:new 0 0 96 98;" xml:space="preserve">
<style type="text/css">
	.st0{fill:#FFFFFF;stroke:#000000;stroke-miterlimit:10;}
	.st1{stroke:#000000;stroke-miterlimit:10;}
	.st2{fill:#FFFFFF;}
	.st3{fill:none;stroke:#FFFFFF;stroke-width:1.25;stroke-miterlimit:10;}
</style>
<g>
	<path d="M41.54,80.31c0,0-7.14-2.58-10.4-8.46c-0.51-2.48-2.66-5.95-2.66-5.95s-1.25-2.47,0.22-5.87c1.38,0.46,3.14,0.67,3.37,5.03
		c0.73,0.18,2.39,0.92,4.87,4.96c0.92,0.09,3.67,1.25,4.68,1.53c0.09-0.64,0.81-5.23,2.35-6.21c-0.44-0.44-1.26-2.9-1.07-3.97
		c-0.13-0.67-0.73-1.72,0.42-3.88c0-0.64,0.5-2.75,1.12-3.22c0.42-0.32,0.92-0.6,1.2,0.03c0.25,0.57,0.44,1.51-0.22,2.86
		c-0.29,0.6,0.85,1.92,0.22,4.05c0.57,0,1.48,2.46,1.73,3.96c0.01,0.09,0.04,0.16,0.1,0.23c0.15,0.19,0.52,0.72,0.86,1.22
		c0.39,0.57,1.2,0.63,1.67,0.13l0.86-0.92c0,0-1.01-3.17,0.78-4.82c0.05-0.51-0.64-2.43,0.51-4.04c-0.09-0.55-0.07-1.83,0.73-3.44
		c0.23-0.46,1.38-1.42,1.93,0.18c0.55,1.61,0,3.49,0,3.49s0.27,2.45-0.3,3.93c0.04,0.39,0.6,0.74,0,3.42
		c-0.07,0.33-0.16,1.65-0.16,1.65l1.09,0.96c0.35,0.31,0.88,0.25,1.15-0.12l1.07-1.44c0,0-0.14-2.89,2.07-3.81
		c0.05-0.32,0.18-2.94,1.1-4.09c0-0.55-0.18-2.99,0.96-3.08c1.15-0.09,1.47,0.96,1.42,2.99c-0.05,0.6-0.33,4.41-0.33,4.41
		l-2.01,3.95c0,0-0.79,2.76,2.99,0.23c0.37-0.28,2.21-2.07,4.83-2.43c0.76-2.1,0.69-1.9,2.11-3.02c-0.16-0.03,0.81-3.04,2.12-2.39
		c0.57-0.03,0.16,1.72-0.6,2.91c-0.25,0.38-1.12,3.02-1.63,3.76c-0.23,0.34-2.59,3.02-5.53,3.84c-0.09,0.73-0.06,2.25-1.16,4.96
		c-1.1,2.71-2.9,6.82-5.05,7.16c-1.82,0.29-4.13,0.28-4.13,0.28s-4.4,0.32-5.37-1.77c-0.81,1.1-2.14,1.22-3.79,1.35
		C44,81,41.54,80.31,41.54,80.31z"/>
	<path d="M41.39,80.77c-0.32-0.13-0.6-0.12-0.91-0.18c-0.29-0.06-0.55-0.22-0.81-0.34c-0.52-0.26-1.04-0.54-1.54-0.83
		c-1.01-0.59-1.97-1.25-2.89-1.98c-0.93-0.72-1.77-1.55-2.55-2.43c-0.79-0.88-1.44-1.87-2.02-2.9l-0.04-0.07l-0.02-0.08
		c-0.2-1-0.58-2-1.02-2.98c-0.44-0.97-0.93-1.94-1.47-2.86l-0.02-0.03l0-0.01c-0.24-0.54-0.35-1.04-0.43-1.57
		c-0.07-0.53-0.1-1.06-0.06-1.59c0.07-1.05,0.34-2.08,0.76-3.04l0.13-0.3l0.3,0.11c0.5,0.18,1.09,0.31,1.62,0.63
		c0.54,0.31,0.99,0.79,1.29,1.32c0.6,1.08,0.8,2.25,0.87,3.39l-0.4-0.48c0.69,0.18,1.25,0.56,1.73,0.97
		c0.48,0.41,0.9,0.86,1.29,1.33c0.75,0.96,1.38,1.98,1.96,3.03l-0.21-0.13c0.46,0.08,0.84,0.23,1.23,0.37l1.16,0.45
		c0.76,0.3,1.53,0.61,2.3,0.85l-0.19,0.12c0.17-1.12,0.35-2.24,0.6-3.37c0.14-0.56,0.28-1.12,0.51-1.68
		c0.23-0.55,0.51-1.12,1.12-1.57l-0.09,0.78c-0.36-0.43-0.47-0.72-0.62-1.08c-0.14-0.34-0.24-0.69-0.32-1.05
		c-0.14-0.72-0.26-1.43-0.13-2.26l0,0.13c-0.04-0.28-0.15-0.64-0.19-1c-0.05-0.36-0.05-0.73,0-1.09c0.1-0.72,0.39-1.38,0.71-1.99
		l-0.03,0.13c0.03-0.57,0.16-1.04,0.29-1.55c0.14-0.5,0.3-0.99,0.58-1.47c0.13-0.24,0.4-0.49,0.62-0.62
		c0.22-0.13,0.58-0.35,1.01-0.14c0.38,0.25,0.42,0.56,0.52,0.8c0.09,0.27,0.13,0.55,0.15,0.82c0.02,0.56-0.1,1.1-0.28,1.61
		c-0.04,0.13-0.1,0.25-0.15,0.37c0.01,0.02-0.01,0.06,0.01,0.15c0.03,0.18,0.12,0.41,0.2,0.65c0.35,0.96,0.5,2.16,0.17,3.23
		l-0.51-0.68c0.34,0.03,0.5,0.18,0.61,0.28c0.11,0.11,0.19,0.21,0.26,0.3c0.14,0.2,0.24,0.38,0.34,0.57
		c0.18,0.38,0.32,0.76,0.44,1.15c0.11,0.39,0.22,0.78,0.28,1.18c0.03,0.2,0.07,0.4,0.09,0.6l0.03,0.3c0.01,0.11,0,0.09,0.02,0.14
		l0.6,1.02c0.11,0.17,0.19,0.35,0.29,0.46c0.11,0.12,0.26,0.2,0.43,0.25c0.34,0.09,0.7-0.04,0.94-0.32c0.13-0.15,0.3-0.25,0.34-0.49
		c0.04-0.23,0.02-0.51,0.16-0.66l-0.12,0.53c-0.03-0.13,0.07-0.27,0.03-0.38l-0.06-0.33c-0.03-0.22-0.06-0.44-0.08-0.67
		c-0.04-0.45-0.06-0.9,0-1.36c0.11-0.9,0.48-1.83,1.19-2.47l-0.1,0.2c0.01-0.23-0.08-0.64-0.11-0.98c-0.04-0.36-0.06-0.73-0.04-1.1
		c0.03-0.74,0.27-1.5,0.71-2.12l-0.05,0.23c-0.12-0.9,0.04-1.75,0.3-2.56c0.14-0.42,0.28-0.77,0.51-1.2
		c0.29-0.41,0.67-0.75,1.28-0.78c0.3-0.01,0.6,0.16,0.78,0.35c0.18,0.2,0.29,0.42,0.37,0.63c0.16,0.43,0.24,0.85,0.27,1.28
		c0.07,0.86-0.05,1.69-0.25,2.53l0.01-0.12c0.06,0.68,0.11,1.35,0.12,2.04c0.01,0.68,0,1.39-0.25,2.11l0.03-0.23
		c-0.01-0.03,0.14,0.3,0.2,0.53c0.06,0.25,0.09,0.51,0.07,0.75c-0.03,0.48-0.15,0.92-0.24,1.35c-0.08,0.43-0.26,0.86-0.26,1.27
		c-0.05,0.41-0.03,0.84,0.02,1.25l-0.15-0.37c0.33,0.2,0.64,0.42,0.88,0.72c0.06,0.07,0.11,0.16,0.17,0.24
		c0.04,0.07,0.05,0.1,0.09,0.14c0.07,0.09,0.21,0.12,0.33,0.09c0.13-0.05,0.18-0.11,0.26-0.28l0.25-0.52
		c0.15-0.36,0.37-0.67,0.61-0.96l-0.1,0.33c0.01-0.46,0.13-0.84,0.26-1.24c0.14-0.39,0.3-0.76,0.47-1.14
		c0.18-0.37,0.36-0.75,0.62-1.1c0.25-0.37,0.64-0.62,1.05-0.79l-0.28,0.37c0.04-0.31,0.08-0.71,0.13-1.06
		c0.05-0.36,0.12-0.73,0.2-1.09c0.19-0.72,0.41-1.45,0.94-2.11l-0.08,0.24c0.01-0.46,0.01-0.98,0.07-1.48
		c0.08-0.5,0.14-1.04,0.54-1.53c0.19-0.26,0.61-0.38,0.88-0.35c0.28,0,0.61,0.09,0.85,0.3c0.48,0.43,0.57,1,0.65,1.49
		c0.14,1.02,0.02,2-0.03,2.96L63.26,62l0,0.06l0,0.07l-0.04,0.07c-0.66,1.32-1.38,2.61-2.09,3.91l0.02-0.05
		c-0.08,0.32-0.22,0.74-0.01,0.97c0.23,0.24,0.71,0.11,1-0.13c0.31-0.26,0.62-0.5,1-0.63c0.18-0.08,0.38-0.15,0.55-0.25
		c0.13-0.1,0.3-0.25,0.46-0.38c1.28-1.06,2.82-1.87,4.51-2.14l-0.22,0.18c0.22-0.6,0.38-1.19,0.73-1.81
		c0.18-0.31,0.45-0.57,0.7-0.77l0.74-0.59l0.13,0.54c-0.08-0.01-0.17-0.08-0.21-0.16c-0.03-0.07-0.02-0.05-0.03-0.09
		c-0.01-0.05-0.01-0.09-0.01-0.1c0-0.04,0-0.08,0.01-0.1c0.01-0.06,0.02-0.1,0.02-0.14l0.07-0.24c0.05-0.16,0.1-0.31,0.16-0.45
		c0.12-0.3,0.27-0.58,0.44-0.86c0.18-0.27,0.39-0.54,0.71-0.75c0.3-0.22,0.82-0.28,1.17-0.08l-0.16-0.03
		c0.17-0.01,0.38,0.09,0.46,0.23c0.09,0.14,0.1,0.24,0.12,0.34c0.03,0.2,0.01,0.36-0.01,0.53c-0.05,0.32-0.13,0.62-0.23,0.91
		c-0.1,0.29-0.22,0.58-0.36,0.85c-0.07,0.14-0.14,0.27-0.23,0.41c-0.09,0.15-0.12,0.21-0.19,0.35c-0.46,1.07-0.82,2.19-1.39,3.28
		c-0.35,0.59-0.79,0.95-1.22,1.39c-0.44,0.41-0.9,0.8-1.39,1.15c-0.97,0.71-2.04,1.3-3.22,1.65l0.2-0.23
		c-0.08,1.51-0.44,3.08-0.97,4.52c-0.55,1.44-1.09,2.87-1.78,4.27c-0.35,0.7-0.73,1.38-1.21,2.03c-0.49,0.63-1.06,1.28-1.92,1.64
		c-0.48,0.16-0.86,0.2-1.25,0.25c-0.39,0.05-0.78,0.08-1.16,0.11c-0.78,0.05-1.54,0.07-2.33,0.07l0.04,0
		c-1.05,0.05-2.07-0.01-3.1-0.24c-0.52-0.11-1.04-0.28-1.53-0.55c-0.49-0.27-0.97-0.69-1.26-1.26l0.91,0.09
		c-0.47,0.69-1.25,1.17-2,1.4c-0.75,0.24-1.47,0.33-2.16,0.38c-0.8,0.06-1.53-0.09-2.23-0.26C42.77,81.17,42.12,80.97,41.39,80.77z
		 M41.69,79.85c0.61,0.16,1.32,0.25,1.98,0.28c0.67,0.04,1.33,0.03,1.92-0.01c1.36-0.15,2.73,0,3.42-0.92l0.54-0.72l0.37,0.81
		c0.3,0.66,1.16,1.08,2.05,1.28c0.9,0.2,1.88,0.25,2.8,0.2l0.02,0l0.02,0c0.74,0,1.5-0.03,2.25-0.09c0.37-0.03,0.75-0.05,1.11-0.1
		c0.37-0.04,0.76-0.09,1-0.17c0.55-0.23,1.09-0.72,1.54-1.27c0.45-0.56,0.86-1.18,1.24-1.83c0.75-1.29,1.41-2.68,1.97-4.07
		c0.57-1.41,0.87-2.85,0.96-4.39l0.01-0.17l0.18-0.05c1.09-0.32,2.12-0.88,3.05-1.56c0.47-0.34,0.91-0.71,1.33-1.11
		c0.4-0.39,0.86-0.83,1.11-1.26c0.51-1.01,0.88-2.14,1.33-3.25c0.05-0.12,0.15-0.33,0.22-0.43c0.07-0.12,0.14-0.24,0.2-0.37
		c0.13-0.25,0.23-0.51,0.32-0.78c0.09-0.26,0.16-0.54,0.2-0.8c0.02-0.13,0.03-0.26,0.01-0.36c-0.01-0.04-0.02-0.09-0.02-0.07
		c0,0,0.07,0.06,0.09,0.04l-0.16-0.03c-0.19-0.09-0.35-0.07-0.55,0.05c-0.19,0.12-0.37,0.33-0.53,0.56
		c-0.15,0.23-0.29,0.49-0.4,0.75c-0.06,0.13-0.11,0.27-0.15,0.4L71.1,60.6l-0.02,0.08c0,0.01,0,0.01,0,0.01c0,0.01,0-0.01-0.01-0.04
		c-0.01-0.02,0,0-0.03-0.06c-0.03-0.07-0.13-0.13-0.19-0.14L70.98,61c-0.49,0.4-1.05,0.74-1.33,1.19c-0.29,0.48-0.49,1.11-0.71,1.69
		l-0.06,0.16l-0.16,0.02c-1.57,0.2-3.02,0.99-4.26,2c-0.67,0.47-1.23,1.24-2.17,1.28c-0.45,0-0.88,0.17-1.34-0.09
		c-0.22-0.15-0.32-0.41-0.37-0.64c-0.04-0.24-0.03-0.46,0.02-0.7l0-0.01l0.02-0.03c0.63-1.34,1.25-2.68,1.93-3.99L62.52,62
		l0.01-0.06l0.28-2.89l0.13-1.45c0.01-0.46,0-0.95-0.06-1.4c-0.06-0.45-0.18-0.91-0.45-1.13c-0.24-0.21-0.77-0.22-0.92,0.02
		c-0.21,0.27-0.31,0.74-0.33,1.19c-0.03,0.47,0,0.92,0.03,1.42l0.01,0.11l-0.09,0.13c-0.35,0.49-0.53,1.16-0.66,1.83
		c-0.07,0.34-0.12,0.68-0.17,1.02l-0.11,1.07l-0.02,0.23l-0.26,0.14c-0.29,0.15-0.57,0.29-0.85,0.48c-0.27,0.2-0.54,0.45-0.69,0.78
		c-0.15,0.32-0.23,0.69-0.23,1.05c-0.02,0.35,0.02,0.74,0.04,1.05l0.01,0.16l-0.12,0.17c-0.21,0.32-0.44,0.62-0.74,0.86l-0.43,0.39
		c-0.13,0.15-0.37,0.36-0.61,0.42c-0.24,0.08-0.51,0.1-0.78,0.04c-0.13-0.03-0.28-0.11-0.38-0.17c-0.08-0.05-0.17-0.09-0.26-0.14
		c-0.33-0.2-0.59-0.48-0.82-0.79l-0.19-0.24l0.04-0.12c0.13-0.44,0.23-0.87,0.27-1.31c0.03-0.45,0.12-0.85,0.16-1.27
		c0.04-0.41,0.01-0.83-0.04-1.21c-0.03-0.19-0.06-0.36-0.09-0.52c-0.02-0.19-0.1-0.24-0.18-0.69l-0.02-0.1l0.05-0.12
		c0.44-1.07,0.59-2.45,0.47-3.72l-0.01-0.06l0.02-0.06c0.21-0.73,0.26-1.55,0.19-2.31c-0.04-0.38-0.12-0.76-0.26-1.09
		c-0.14-0.34-0.33-0.58-0.53-0.56c-0.22-0.01-0.55,0.22-0.72,0.47c-0.15,0.29-0.33,0.69-0.45,1.05c-0.25,0.73-0.39,1.53-0.3,2.25
		l0.02,0.13l-0.07,0.1c-0.37,0.52-0.57,1.14-0.61,1.79c-0.02,0.33-0.01,0.66,0.03,0.99c0.03,0.36,0.11,0.63,0.12,1.1l0,0.09
		l-0.1,0.1c-0.27,0.28-0.49,0.59-0.64,0.95c-0.14,0.36-0.22,0.75-0.25,1.15c-0.03,0.4-0.02,0.8,0.02,1.21
		c0.02,0.2,0.05,0.4,0.11,0.6l0.08,0.29c0.01,0.1,0.17,0.17,0.2,0.24l0.11,0.28l-0.23,0.24c-0.13,0.14-0.42,0.14-0.65,0.2
		c-0.24,0.05-0.33,0.23-0.46,0.37c-0.26,0.33-0.72,0.51-1.15,0.45c-0.22-0.03-0.43-0.13-0.61-0.27c-0.19-0.15-0.29-0.32-0.42-0.46
		l-0.74-0.89c-0.11-0.11-0.17-0.32-0.19-0.41l-0.08-0.27c-0.05-0.18-0.11-0.36-0.18-0.54c-0.13-0.35-0.26-0.71-0.41-1.06
		c-0.14-0.35-0.29-0.69-0.46-1.01c-0.08-0.16-0.17-0.31-0.26-0.43c-0.04-0.07-0.09-0.11-0.12-0.14c-0.03-0.04-0.03,0.01,0.11,0.01
		l-0.51-0.68c0.27-0.86,0.25-1.75,0-2.69c-0.05-0.24-0.13-0.48-0.16-0.81c-0.02-0.15,0-0.37,0.1-0.58c0.05-0.1,0.11-0.21,0.16-0.31
		c0.2-0.42,0.31-0.87,0.32-1.32c0-0.22-0.02-0.44-0.08-0.66c-0.05-0.22-0.16-0.44-0.23-0.46c-0.04-0.04-0.21-0.01-0.4,0.11
		c-0.21,0.13-0.32,0.23-0.44,0.42c-0.44,0.78-0.73,1.82-0.78,2.72l0,0.08l-0.03,0.06c-0.29,0.58-0.53,1.18-0.6,1.8
		c-0.04,0.31-0.03,0.61,0.02,0.91c0.05,0.31,0.17,0.58,0.27,0.96l0.01,0.04l-0.01,0.09c-0.03,0.27,0.03,0.6,0.1,0.91
		c0.07,0.32,0.17,0.64,0.28,0.95l0.33,0.93c0.11,0.28,0.27,0.65,0.35,0.76l0.39,0.49l-0.48,0.29c-0.33,0.2-0.65,0.63-0.92,1.08
		c-0.27,0.46-0.5,0.97-0.7,1.48c-0.41,1.03-0.69,2.13-0.86,3.24l-0.03,0.17l-0.16-0.05c-0.81-0.23-1.57-0.53-2.35-0.78
		c-0.39-0.13-0.78-0.25-1.17-0.36c-0.39-0.11-0.8-0.21-1.15-0.24l-0.13-0.01l-0.08-0.12c-0.66-0.97-1.37-1.9-2.16-2.73
		c-0.76-0.83-1.67-1.62-2.6-1.86l-0.37-0.1l-0.03-0.38c-0.07-1.06-0.15-2.14-0.57-3.05c-0.21-0.45-0.5-0.84-0.93-1.09
		c-0.41-0.26-0.92-0.42-1.46-0.58l0.44-0.2c-0.37,0.89-0.6,1.84-0.65,2.8c-0.02,0.48,0.01,0.95,0.08,1.42
		c0.07,0.46,0.21,0.95,0.38,1.32l-0.02-0.03c0.59,0.95,1.13,1.9,1.62,2.9c0.48,1,0.93,2.03,1.2,3.17L31.6,71.6
		c0.58,0.93,1.21,1.83,1.97,2.62c0.76,0.8,1.57,1.54,2.46,2.21c0.88,0.67,1.81,1.28,2.78,1.82c0.48,0.27,0.98,0.53,1.48,0.76
		c0.25,0.13,0.51,0.21,0.74,0.38C41.23,79.55,41.47,79.77,41.69,79.85z"/>
</g>
<path class="st0" d="M30.46,40.47c0,0,7.86-11.94,21.31-11.94c10.23,0,15.43,7.16,18.28,13.5c-10.29,2.39-17.36,2.39-17.36,2.39
	S33.86,43.51,30.46,40.47z"/>
<path class="st1" d="M59.8,36.37c0,4.14-3.71,7.99-8.28,7.99s-8.28-3.84-8.28-7.99s3.96-7.84,8.53-7.84S59.8,32.23,59.8,36.37z"/>
<g>
	<polygon points="20.83,37.41 31.1,39.53 30.57,41.29 	"/>
</g>
<g>
	<polygon points="33.86,23.76 40.68,31.26 38.62,32.71 	"/>
</g>
<g>
	<polygon points="52.14,17.23 52.89,28.57 50.65,28.5 	"/>
</g>
<g>
	<polygon points="70.87,27.15 64.81,34.18 62.96,32.01 	"/>
</g>
<g>
	<polygon points="78.33,38.91 69.6,42.7 69.07,41.12 	"/>
</g>
<g>
	<path class="st2" d="M41.49,71.79c1.5,0.35,2.98,0.85,4.38,1.54c1.37,0.7,2.76,1.6,3.56,3.07l0.01,0.01l0,0.01
		c0.13,0.36,0.17,0.68,0.21,1.02c0.03,0.33,0.04,0.67,0.02,1c-0.03,0.67-0.14,1.32-0.31,1.96l-0.72-0.21
		c0.19-0.59,0.32-1.19,0.39-1.8c0.03-0.3,0.04-0.61,0.03-0.91c-0.01-0.3-0.05-0.62-0.12-0.87l0.01,0.02
		c-0.61-1.33-1.89-2.3-3.19-3.06C44.4,72.81,42.97,72.22,41.49,71.79z"/>
</g>
<g>
	<path class="st2" d="M48.87,80.04c0.14-0.19,0.18-0.17,0.25-0.17c0.06-0.02,0.13-0.02,0.2-0.06c0.15-0.07,0.33-0.2,0.43-0.4
		c0.22-0.4,0.33-0.88,0.42-1.36c0.04-0.24,0.08-0.49,0.1-0.73l0.04-0.37c0.03-0.19,0.09-0.31,0.14-0.43
		c0.23-0.48,0.5-0.91,0.79-1.33c0.58-0.85,1.24-1.63,2.01-2.31c0.76-0.68,1.66-1.26,2.7-1.45l0.04,0.24
		c-0.96,0.19-1.82,0.74-2.54,1.42c-0.72,0.69-1.35,1.47-1.88,2.31c-0.27,0.42-0.52,0.85-0.71,1.3c-0.04,0.11-0.08,0.22-0.1,0.28
		l-0.03,0.38c-0.01,0.26-0.05,0.51-0.08,0.77c-0.08,0.51-0.18,1.03-0.43,1.53c-0.12,0.25-0.25,0.53-0.53,0.75
		c-0.13,0.11-0.31,0.19-0.5,0.21c-0.18,0.02-0.4,0.01-0.49-0.27L48.87,80.04z"/>
</g>
<g>
	<path class="st2" d="M43.84,68.7c1.34,0.51,2.78,0.66,4.18,0.55c0.35-0.02,0.69-0.09,1.08-0.11c0.38-0.02,0.78,0.04,1.14,0.16
		c0.74,0.24,1.36,0.64,1.97,1.05l0,0l-0.09-0.05c0.78,0.32,1.64,0.57,2.49,0.68c0.87,0.12,1.71,0.08,2.56-0.18
		c0.87-0.22,1.75-0.4,2.65-0.51c0.88-0.09,1.83-0.21,2.66,0.16c-0.85-0.32-1.77-0.12-2.63,0.02c-0.87,0.17-1.73,0.42-2.57,0.69
		c-0.83,0.32-1.81,0.46-2.72,0.38c-0.93-0.06-1.82-0.24-2.71-0.54l-0.04-0.01l-0.04-0.04l0,0c-0.54-0.44-1.09-0.86-1.7-1.12
		c-0.61-0.29-1.26-0.21-2.02-0.2C46.58,69.61,45.13,69.33,43.84,68.7z"/>
</g>
<g>
	<path class="st2" d="M46.78,70.93c1.04,0.27,2.05,0.58,3.06,0.97c0.5,0.2,1,0.42,1.48,0.69c0.24,0.14,0.48,0.3,0.71,0.51
		c0.21,0.2,0.49,0.5,0.45,0.99l-0.74-0.11c0.02-0.05-0.04-0.23-0.2-0.39c-0.15-0.16-0.35-0.32-0.55-0.46
		c-0.42-0.28-0.88-0.53-1.35-0.76c-0.94-0.45-1.93-0.84-2.93-1.18L46.78,70.93z"/>
</g>
<circle class="st3" cx="54.58" cy="33.94" r="1.5"/>
</svg>
